<svg xmlns="http://www.w3.org/2000/svg" xmlns:xlink="http://www.w3.org/1999/xlink" width="36" height="24.173" viewBox="0 0 36 24.173"><defs><style>.a{fill:#ed5565;}.b{clip-path:url(#a);}.c{fill:#434a54;}.d{fill:#f6bb42;}</style><clipPath id="a"><path class="a" d="M150.012,1006.058h29.455a3.285,3.285,0,0,1,3.273,3.3v17.581a3.285,3.285,0,0,1-3.273,3.3H150.012a3.285,3.285,0,0,1-3.273-3.3v-17.581A3.285,3.285,0,0,1,150.012,1006.058Z" transform="translate(-146.739 -1006.058)"/></clipPath></defs><g transform="translate(0 0)"><path class="a" d="M150.012,1006.058h29.455a3.285,3.285,0,0,1,3.273,3.3v17.581a3.285,3.285,0,0,1-3.273,3.3H150.012a3.285,3.285,0,0,1-3.273-3.3v-17.581A3.285,3.285,0,0,1,150.012,1006.058Z" transform="translate(-146.739 -1006.058)"/><g class="b"><rect class="c" width="36" height="8.229" transform="translate(0 0.001)"/><rect class="d" width="36" height="8.229" transform="translate(0 16.46)"/></g></g></svg>