<svg xmlns="http://www.w3.org/2000/svg" xmlns:xlink="http://www.w3.org/1999/xlink" width="36" height="24.173" viewBox="0 0 36 24.173">
  <defs>
    <clipPath id="clip-path">
      <path id="Rounded_Rectangle_7_copy" data-name="Rounded Rectangle 7 copy" d="M1306.447,661.594H1335.9a3.285,3.285,0,0,1,3.273,3.3v17.581a3.285,3.285,0,0,1-3.273,3.3h-29.454a3.285,3.285,0,0,1-3.273-3.3V664.89A3.285,3.285,0,0,1,1306.447,661.594Z" transform="translate(-1303.174 -661.594)" fill="#4758a9"/>
    </clipPath>
  </defs>
  <g id="GB" transform="translate(-1303.174 -661.594)">
    <g id="Rounded_Rectangle_7_copy-2" data-name="Rounded Rectangle 7 copy" transform="translate(1303.174 661.594)">
      <path id="Rounded_Rectangle_7_copy-3" data-name="Rounded Rectangle 7 copy" d="M1306.447,661.594H1335.9a3.285,3.285,0,0,1,3.273,3.3v17.581a3.285,3.285,0,0,1-3.273,3.3h-29.454a3.285,3.285,0,0,1-3.273-3.3V664.89A3.285,3.285,0,0,1,1306.447,661.594Z" transform="translate(-1303.174 -661.594)" fill="#4758a9"/>
      <g id="Clip" transform="translate(0 0)" clip-path="url(#clip-path)">
        <path id="Rectangle_5_copy_5" data-name="Rectangle 5 copy 5" d="M1299.261,684.133l-1.393-2.161,38.468-24.8,1.393,2.161Z" transform="translate(-1299.541 -658.563)" fill="#fff"/>
        <path id="Rectangle_5_copy_5-2" data-name="Rectangle 5 copy 5" d="M1299.532,684.554l-.929-1.441,38.469-24.8.929,1.441Z" transform="translate(-1300.045 -659.345)" fill="#ed5565"/>
        <path id="Rectangle_5_copy_6" data-name="Rectangle 5 copy 6" d="M1336.5,685.08l1.384-2.143-38.22-24.6-1.384,2.143Z" transform="translate(-1299.82 -659.365)" fill="#fff"/>
        <path id="Rectangle_5_copy_6-2" data-name="Rectangle 5 copy 6" d="M1337.227,685.5l.923-1.429-38.22-24.6-.923,1.429Z" transform="translate(-1300.321 -660.14)" fill="#ed5565"/>
        <rect id="Rectangle_5_copy_4" data-name="Rectangle 5 copy 4" width="36" height="6.173" transform="translate(-0.001 9.257)" fill="#fff"/>
        <rect id="Rectangle_5_copy_3" data-name="Rectangle 5 copy 3" width="6.173" height="24.174" transform="translate(14.915 -0.001)" fill="#fff"/>
        <rect id="Rectangle_5_copy_2" data-name="Rectangle 5 copy 2" width="36" height="4.113" transform="translate(-0.001 10.285)" fill="#ed5565"/>
        <rect id="Rectangle_5_copy_2-2" data-name="Rectangle 5 copy 2" width="4.113" height="24.174" transform="translate(15.944 -0.001)" fill="#ed5565"/>
      </g>
    </g>
  </g>
</svg>
